<?xml version="1.0" encoding="UTF-8"?>
<svg width="16px" height="16px" viewBox="0 0 16 16" version="1.1" xmlns="http://www.w3.org/2000/svg" xmlns:xlink="http://www.w3.org/1999/xlink">
    <title>character</title>
    <g id="character" stroke="none" stroke-width="1" fill="none" fill-rule="evenodd">
        <path d="M12,11.54037 C12,12.3465014 10.209139,13 8,13 C5.790861,13 4,12.3465014 4,11.54037 C4,10.9070127 6.70380272,9.56725585 6.70380272,10.1658647 C6.70380272,11.1287379 6.80972808,11.2517531 6.86897416,11.2741491 C7.16804347,11.3872023 7.40590956,11.4060445 7.69966955,11.4091849 L8.0468768,11.4091849 C8.32696482,11.4060445 8.6407244,11.3872023 8.9000269,11.2741491 C8.94644575,11.253911 9.07254383,11.2741491 9.07254383,10.1658647 C9.07254383,9.5292469 12,10.88471 12,11.54037 Z M8,3 C9.65685787,3 11,4.65550512 11,6.69767419 C11,7.88137195 9.90502147,8.31083501 9.20298368,8.98762943 C8.8382447,9.33925338 8.90772329,10.2412546 8.91738159,10.6206273 C8.92596675,10.9578475 8.92692066,10.9953164 8.20102492,10.9994796 L7.58563826,10.9994796 C6.85963652,10.9953164 6.85963652,10.9578475 6.85963652,10.6206273 C6.85963652,10.2412546 6.9268708,9.24758896 6.51639363,8.98762943 C5.54803427,8.3743572 5,8.13189318 5,6.69767419 C5,4.65550512 6.34315832,3 8,3 Z M7.5,7.5 C6.67157288,7.5 6,7.22385763 6,7.5 C6,7.77614237 6.67157288,8 7.5,8 C8.32842712,8 9,7.77614237 9,7.5 C9,7.22385763 8.32842712,7.5 7.5,7.5 Z" id="Combined-Shape" fill="#FFFFFF"></path>
        <rect id="Rectangle" stroke="#FFFFFF" x="1.5" y="1.5" width="13" height="13"></rect>
    </g>
</svg>