<?xml version="1.0" encoding="UTF-8"?>
<svg width="16px" height="16px" viewBox="0 0 16 16" version="1.1" xmlns="http://www.w3.org/2000/svg" xmlns:xlink="http://www.w3.org/1999/xlink">
    <title>dialog</title>
    <g id="dialog" stroke="none" stroke-width="1" fill="none" fill-rule="evenodd">
        <path d="M15,11.54037 C15,12.3465014 13.209139,13 11,13 C8.790861,13 7,12.3465014 7,11.54037 C7,10.9070127 9.70380272,9.56725585 9.70380272,10.1658647 C9.70380272,11.1287379 9.80972808,11.2517531 9.86897416,11.2741491 C10.1680435,11.3872023 10.4059096,11.4060445 10.6996696,11.4091849 L11.0468768,11.4091849 C11.3269648,11.4060445 11.6407244,11.3872023 11.9000269,11.2741491 C11.9464458,11.253911 12.0725438,11.2741491 12.0725438,10.1658647 C12.0725438,9.5292469 15,10.88471 15,11.54037 Z M11,3 C12.6568579,3 14,4.65550512 14,6.69767419 C14,7.88137195 12.9050215,8.31083501 12.2029837,8.98762943 C11.8382447,9.33925338 11.9077233,10.2412546 11.9173816,10.6206273 C11.9259668,10.9578475 11.9269207,10.9953164 11.2010249,10.9994796 L10.5856383,10.9994796 C9.85963652,10.9953164 9.85963652,10.9578475 9.85963652,10.6206273 C9.85963652,10.2412546 9.9268708,9.24758896 9.51639363,8.98762943 C8.54803427,8.3743572 8,8.13189318 8,6.69767419 C8,4.65550512 9.34315832,3 11,3 Z M10.5,7.5 C9.67157288,7.5 9,7.22385763 9,7.5 C9,7.77614237 9.67157288,8 10.5,8 C11.3284271,8 12,7.77614237 12,7.5 C12,7.22385763 11.3284271,7.5 10.5,7.5 Z" id="Combined-Shape" fill="#FFFFFF"></path>
        <path d="M9,11.54037 C9,12.3465014 7.209139,13 5,13 C2.790861,13 1,12.3465014 1,11.54037 C1,10.9070127 3.70380272,9.56725585 3.70380272,10.1658647 C3.70380272,11.1287379 3.80972808,11.2517531 3.86897416,11.2741491 C4.16804347,11.3872023 4.40590956,11.4060445 4.69966955,11.4091849 L5.0468768,11.4091849 C5.32696482,11.4060445 5.6407244,11.3872023 5.9000269,11.2741491 C5.94644575,11.253911 6.07254383,11.2741491 6.07254383,10.1658647 C6.07254383,9.5292469 9,10.88471 9,11.54037 Z M5,3 C6.65685787,3 8,4.65550512 8,6.69767419 C8,7.88137195 6.90502147,8.31083501 6.20298368,8.98762943 C5.8382447,9.33925338 5.90772329,10.2412546 5.91738159,10.6206273 C5.92596675,10.9578475 5.92692066,10.9953164 5.20102492,10.9994796 L4.58563826,10.9994796 C3.85963652,10.9953164 3.85963652,10.9578475 3.85963652,10.6206273 C3.85963652,10.2412546 3.9268708,9.24758896 3.51639363,8.98762943 C2.54803427,8.3743572 2,8.13189318 2,6.69767419 C2,4.65550512 3.34315832,3 5,3 Z M4.5,7.5 C3.67157288,7.5 3,7.22385763 3,7.5 C3,7.77614237 3.67157288,8 4.5,8 C5.32842712,8 6,7.77614237 6,7.5 C6,7.22385763 5.32842712,7.5 4.5,7.5 Z" id="Combined-Shape-Copy" fill="#FFFFFF" transform="translate(5.000000, 8.000000) scale(-1, 1) translate(-5.000000, -8.000000) "></path>
    </g>
</svg>